<svg xmlns="http://www.w3.org/2000/svg" width="20" height="20" viewBox="0 0 24 24" role="img" aria-label="Config">
  <path d="M3.2 8c0-1 .8-1.8 1.8-1.8h5l1.9 2.2H19c1 0 1.8.8 1.8 1.8v6.4c0 1-.8 1.8-1.8 1.8H5c-1 0-1.8-.8-1.8-1.8z" fill="#98A3B1"/>
  <path d="M4.7 9.5h14.6v1.8H4.7z" fill="#BAC2CE" opacity=".48"/>
  <path d="M5.5 8.4h4.2l1.2 1.5H5.5z" fill="#BAC2CE" opacity=".8"/>
  <g transform="translate(6.2 4.9) scale(.68)"><circle cx="12" cy="14" r="1.8" fill="none" stroke="#BAC2CE" stroke-width="1.25"/><path d="M12 10.7v1M12 16.3v1M8.7 14h1M14.3 14h1M9.7 11.7l.7.7M13.6 15.6l.7.7M14.3 11.7l-.7.7M10.4 15.6l-.7.7" stroke="#BAC2CE" stroke-width="1.25" stroke-linecap="round"/></g>
</svg>
