<svg xmlns="http://www.w3.org/2000/svg" width="20" height="20" viewBox="0 0 24 24" role="img" aria-label="Utilities">
  <path d="M3.2 8c0-1 .8-1.8 1.8-1.8h5l1.9 2.2H19c1 0 1.8.8 1.8 1.8v6.4c0 1-.8 1.8-1.8 1.8H5c-1 0-1.8-.8-1.8-1.8z" fill="#929EB0"/>
  <path d="M4.7 9.5h14.6v1.8H4.7z" fill="#B9C2CE" opacity=".48"/>
  <path d="M5.5 8.4h4.2l1.2 1.5H5.5z" fill="#B9C2CE" opacity=".8"/>
  <g transform="translate(6.2 4.9) scale(.68)"><path d="m9.1 16.6 5.8-5.8M13.8 10.8l1.6-.4.4-1.6 1.1 1.1-.4 1.6-1.6.4z" fill="none" stroke="#B9C2CE" stroke-width="1.3" stroke-linecap="round" stroke-linejoin="round"/></g>
</svg>
