<svg xmlns="http://www.w3.org/2000/svg" width="20" height="20" viewBox="0 0 24 24" role="img" aria-label="Folder Open">
  <path d="M3.2 8.1c0-1 .8-1.8 1.8-1.8h5l1.8 2.2H19c1 0 1.8.8 1.8 1.8v1.4H6.9c-.8 0-1.5.5-1.8 1.2l-1.9 4.7z" fill="#93A0B2"/>
  <path d="M4.6 18.1c-.9 0-1.5-.8-1.2-1.7l1.7-4.7c.3-.7 1-1.2 1.8-1.2h13.5c.9 0 1.5.8 1.3 1.7L20.1 17c-.3.7-1 1.2-1.8 1.2H4.6Z" fill="#93A0B2"/>
  <path d="M4.7 9.5h14.6v1.8H4.7z" fill="#BBC4D1" opacity=".48"/>
  <path d="M5.5 8.4h4.2l1.2 1.5H5.5z" fill="#BBC4D1" opacity=".8"/>

</svg>
