<svg xmlns="http://www.w3.org/2000/svg" width="20" height="20" viewBox="0 0 24 24" role="img" aria-label="Cloud">
  <path d="M3.2 8c0-1 .8-1.8 1.8-1.8h5l1.9 2.2H19c1 0 1.8.8 1.8 1.8v6.4c0 1-.8 1.8-1.8 1.8H5c-1 0-1.8-.8-1.8-1.8z" fill="#55B5AF"/>
  <path d="M4.7 9.5h14.6v1.8H4.7z" fill="#A4D5D4" opacity=".48"/>
  <path d="M5.5 8.4h4.2l1.2 1.5H5.5z" fill="#A4D5D4" opacity=".8"/>
  <g transform="translate(6.2 4.9) scale(.68)"><path d="M9.3 16.7h5.5a2 2 0 0 0 .3-4 3.1 3.1 0 0 0-5.9.8 1.7 1.7 0 0 0 .1 3.2z" fill="none" stroke="#A4D5D4" stroke-width="1.15" stroke-linejoin="round"/></g>
</svg>
