<svg xmlns="http://www.w3.org/2000/svg" width="20" height="20" viewBox="0 0 24 24" role="img" aria-label="UI">
  <path d="M3.2 8c0-1 .8-1.8 1.8-1.8h5l1.9 2.2H19c1 0 1.8.8 1.8 1.8v6.4c0 1-.8 1.8-1.8 1.8H5c-1 0-1.8-.8-1.8-1.8z" fill="#AA89F5"/>
  <path d="M4.7 9.5h14.6v1.8H4.7z" fill="#BFB3E5" opacity=".48"/>
  <path d="M5.5 8.4h4.2l1.2 1.5H5.5z" fill="#BFB3E5" opacity=".8"/>
  <g transform="translate(6.2 4.9) scale(.68)"><path d="M9 11.3h2.1v2.1H9zM12.9 11.3H15v2.1h-2.1zM9 15h2.1v2.1H9zM12.9 15H15v2.1h-2.1z" fill="#BFB3E5"/></g>
</svg>
