<svg xmlns="http://www.w3.org/2000/svg" viewBox="3 2 18 20" role="img" aria-label="Gemini">
  <path d="M6.5 2.8h8.1L19.5 7.7v13.5H6.5a2 2 0 0 1-2-2V4.8a2 2 0 0 1 2-2Z" fill="#5E8BD7"/>
  <path d="M14.6 2.8v4.9h4.9Z" fill="#C1D8FF" opacity=".82"/>
  <path d="M7 5.2h6.6v4.6h3.6v9H7Z" fill="#10161F" opacity=".18"/>
  <path d="M12 6.4 13.2 10l3.6 1.2-3.6 1.2L12 16l-1.2-3.6-3.6-1.2 3.6-1.2z" fill="#C1D8FF"/><path d="M17.1 6.8 17.7 8.4l1.6.6-1.6.6-.6 1.6-.6-1.6-1.6-.6 1.6-.6zM7.2 14.2l.5 1.4 1.4.5-1.4.5-.5 1.4-.5-1.4-1.4-.5 1.4-.5z" fill="#C1D8FF" opacity=".82"/><text x="12" y="18.3" text-anchor="middle" font-family="Arial,sans-serif" font-size="3.6" font-weight="700" fill="#C1D8FF">G</text>
</svg>
