<svg xmlns="http://www.w3.org/2000/svg" width="20" height="20" viewBox="0 0 24 24" role="img" aria-label="Markdownlint">
  <path d="M6.5 2.8h8.1L19.5 7.7v13.5H6.5a2 2 0 0 1-2-2V4.8a2 2 0 0 1 2-2Z" fill="#5E8BD7"/>
  <path d="M14.6 2.8v4.9h4.9Z" fill="#C1D8FF" opacity=".82"/>
  <path d="M7 5.2h6.6v4.6h3.6v9H7Z" fill="#10161F" opacity=".18"/>
  <path d="M6.2 15.5v-7h2l2.1 2.9 2.1-2.9h2v7h-1.8v-4.2l-2.3 2.9-2.3-2.9v4.2z" fill="#C1D8FF"/><path d="M15.6 8.5h2.2v3.7h1.5l-2.6 3.3-2.6-3.3h1.5z" fill="#C1D8FF"/>
</svg>
