<svg width="575" height="77" viewBox="0 0 575 77" fill="none" xmlns="http://www.w3.org/2000/svg">
<g clip-path="url(#clip0_81_2)">
<rect width="575" height="77" fill="#FF6900"/>
<path d="M6.8395 60.5L18.6155 15.7H33.3355L45.1115 60.5H36.4075L33.9755 50.644H17.9755L15.5435 60.5H6.8395ZM19.9595 42.836H31.9915L26.5515 21.012H25.3995L19.9595 42.836ZM56.717 60.5V23.38H43.661V15.7H78.221V23.38H65.165V60.5H56.717ZM83.974 60.5V15.7H92.422V34.196H109.062V15.7H117.51V60.5H109.062V41.876H92.422V60.5H83.974ZM122.902 60.5L134.678 15.7H149.398L161.174 60.5H152.47L150.038 50.644H134.038L131.606 60.5H122.902ZM136.022 42.836H148.054L142.614 21.012H141.462L136.022 42.836ZM182.089 61.396C178.633 61.396 175.582 60.7773 172.937 59.54C170.291 58.3027 168.222 56.532 166.729 54.228C165.235 51.924 164.489 49.1507 164.489 45.908V44.116H172.809V45.908C172.809 48.596 173.641 50.6227 175.305 51.988C176.969 53.3107 179.23 53.972 182.089 53.972C184.99 53.972 187.145 53.396 188.553 52.244C190.003 51.092 190.729 49.62 190.729 47.828C190.729 46.5907 190.366 45.588 189.641 44.82C188.958 44.052 187.934 43.4333 186.569 42.964C185.246 42.452 183.625 41.9827 181.705 41.556L180.233 41.236C177.161 40.5533 174.515 39.7 172.297 38.676C170.121 37.6093 168.435 36.2227 167.241 34.516C166.089 32.8093 165.513 30.5907 165.513 27.86C165.513 25.1293 166.153 22.804 167.433 20.884C168.755 18.9213 170.59 17.428 172.937 16.404C175.326 15.3373 178.121 14.804 181.321 14.804C184.521 14.804 187.358 15.3587 189.833 16.468C192.35 17.5347 194.313 19.156 195.721 21.332C197.171 23.4653 197.897 26.1533 197.897 29.396V31.316H189.577V29.396C189.577 27.6893 189.235 26.324 188.553 25.3C187.913 24.2333 186.974 23.4653 185.737 22.996C184.499 22.484 183.027 22.228 181.321 22.228C178.761 22.228 176.862 22.7187 175.625 23.7C174.43 24.6387 173.833 25.94 173.833 27.604C173.833 28.7133 174.11 29.652 174.665 30.42C175.262 31.188 176.137 31.828 177.289 32.34C178.441 32.852 179.913 33.3 181.705 33.684L183.177 34.004C186.377 34.6867 189.15 35.5613 191.497 36.628C193.886 37.6947 195.742 39.1027 197.065 40.852C198.387 42.6013 199.049 44.8413 199.049 47.572C199.049 50.3027 198.345 52.7133 196.937 54.804C195.571 56.852 193.609 58.4733 191.049 59.668C188.531 60.82 185.545 61.396 182.089 61.396ZM221.599 60.5V15.7H230.047V60.5H221.599ZM238.474 60.5V15.7H254.538L263.434 54.74H264.586V15.7H272.906V60.5H256.842L247.946 21.46H246.794V60.5H238.474ZM280.069 60.5V53.076H285.957V23.124H280.069V15.7H298.501C304.517 15.7 309.082 17.236 312.197 20.308C315.354 23.3373 316.933 27.86 316.933 33.876V42.324C316.933 48.34 315.354 52.884 312.197 55.956C309.082 58.9853 304.517 60.5 298.501 60.5H280.069ZM294.405 52.82H298.629C302.042 52.82 304.538 51.924 306.117 50.132C307.696 48.34 308.485 45.8227 308.485 42.58V33.62C308.485 30.3347 307.696 27.8173 306.117 26.068C304.538 24.276 302.042 23.38 298.629 23.38H294.405V52.82ZM341.254 61.396C337.585 61.396 334.427 60.7347 331.782 59.412C329.179 58.0467 327.174 56.1267 325.766 53.652C324.401 51.1347 323.718 48.1693 323.718 44.756V15.7H332.166V45.012C332.166 47.7427 332.934 49.8973 334.47 51.476C336.049 53.0547 338.31 53.844 341.254 53.844C344.198 53.844 346.438 53.0547 347.974 51.476C349.553 49.8973 350.342 47.7427 350.342 45.012V15.7H358.79V44.756C358.79 48.1693 358.086 51.1347 356.678 53.652C355.313 56.1267 353.307 58.0467 350.662 59.412C348.059 60.7347 344.923 61.396 341.254 61.396ZM382.526 61.396C379.07 61.396 376.019 60.7773 373.374 59.54C370.729 58.3027 368.659 56.532 367.166 54.228C365.673 51.924 364.926 49.1507 364.926 45.908V44.116H373.246V45.908C373.246 48.596 374.078 50.6227 375.742 51.988C377.406 53.3107 379.667 53.972 382.526 53.972C385.427 53.972 387.582 53.396 388.99 52.244C390.441 51.092 391.166 49.62 391.166 47.828C391.166 46.5907 390.803 45.588 390.078 44.82C389.395 44.052 388.371 43.4333 387.006 42.964C385.683 42.452 384.062 41.9827 382.142 41.556L380.67 41.236C377.598 40.5533 374.953 39.7 372.734 38.676C370.558 37.6093 368.873 36.2227 367.678 34.516C366.526 32.8093 365.95 30.5907 365.95 27.86C365.95 25.1293 366.59 22.804 367.87 20.884C369.193 18.9213 371.027 17.428 373.374 16.404C375.763 15.3373 378.558 14.804 381.758 14.804C384.958 14.804 387.795 15.3587 390.27 16.468C392.787 17.5347 394.75 19.156 396.158 21.332C397.609 23.4653 398.334 26.1533 398.334 29.396V31.316H390.014V29.396C390.014 27.6893 389.673 26.324 388.99 25.3C388.35 24.2333 387.411 23.4653 386.174 22.996C384.937 22.484 383.465 22.228 381.758 22.228C379.198 22.228 377.299 22.7187 376.062 23.7C374.867 24.6387 374.27 25.94 374.27 27.604C374.27 28.7133 374.547 29.652 375.102 30.42C375.699 31.188 376.574 31.828 377.726 32.34C378.878 32.852 380.35 33.3 382.142 33.684L383.614 34.004C386.814 34.6867 389.587 35.5613 391.934 36.628C394.323 37.6947 396.179 39.1027 397.502 40.852C398.825 42.6013 399.486 44.8413 399.486 47.572C399.486 50.3027 398.782 52.7133 397.374 54.804C396.009 56.852 394.046 58.4733 391.486 59.668C388.969 60.82 385.982 61.396 382.526 61.396ZM414.717 60.5V23.38H401.661V15.7H436.221V23.38H423.165V60.5H414.717ZM441.974 60.5V15.7H461.43C464.246 15.7 466.699 16.1907 468.79 17.172C470.881 18.1533 472.502 19.54 473.654 21.332C474.806 23.124 475.382 25.236 475.382 27.668V28.436C475.382 31.124 474.742 33.3 473.462 34.964C472.182 36.628 470.603 37.844 468.726 38.612V39.764C470.433 39.8493 471.755 40.4467 472.694 41.556C473.633 42.6227 474.102 44.052 474.102 45.844V60.5H465.654V47.06C465.654 46.036 465.377 45.204 464.822 44.564C464.31 43.924 463.435 43.604 462.198 43.604H450.422V60.5H441.974ZM450.422 35.924H460.534C462.539 35.924 464.097 35.3907 465.206 34.324C466.358 33.2147 466.934 31.764 466.934 29.972V29.332C466.934 27.54 466.379 26.1107 465.27 25.044C464.161 23.9347 462.582 23.38 460.534 23.38H450.422V35.924ZM482.411 60.5V15.7H490.86V60.5H482.411ZM499.286 60.5V15.7H528.087V23.38H507.735V34.068H526.295V41.748H507.735V52.82H528.471V60.5H499.286ZM550.276 61.396C546.82 61.396 543.769 60.7773 541.124 59.54C538.479 58.3027 536.409 56.532 534.916 54.228C533.423 51.924 532.676 49.1507 532.676 45.908V44.116H540.996V45.908C540.996 48.596 541.828 50.6227 543.492 51.988C545.156 53.3107 547.417 53.972 550.276 53.972C553.177 53.972 555.332 53.396 556.74 52.244C558.191 51.092 558.916 49.62 558.916 47.828C558.916 46.5907 558.553 45.588 557.828 44.82C557.145 44.052 556.121 43.4333 554.756 42.964C553.433 42.452 551.812 41.9827 549.892 41.556L548.42 41.236C545.348 40.5533 542.703 39.7 540.484 38.676C538.308 37.6093 536.623 36.2227 535.428 34.516C534.276 32.8093 533.7 30.5907 533.7 27.86C533.7 25.1293 534.34 22.804 535.62 20.884C536.943 18.9213 538.777 17.428 541.124 16.404C543.513 15.3373 546.308 14.804 549.508 14.804C552.708 14.804 555.545 15.3587 558.02 16.468C560.537 17.5347 562.5 19.156 563.908 21.332C565.359 23.4653 566.084 26.1533 566.084 29.396V31.316H557.764V29.396C557.764 27.6893 557.423 26.324 556.74 25.3C556.1 24.2333 555.161 23.4653 553.924 22.996C552.687 22.484 551.215 22.228 549.508 22.228C546.948 22.228 545.049 22.7187 543.812 23.7C542.617 24.6387 542.02 25.94 542.02 27.604C542.02 28.7133 542.297 29.652 542.852 30.42C543.449 31.188 544.324 31.828 545.476 32.34C546.628 32.852 548.1 33.3 549.892 33.684L551.364 34.004C554.564 34.6867 557.337 35.5613 559.684 36.628C562.073 37.6947 563.929 39.1027 565.252 40.852C566.575 42.6013 567.236 44.8413 567.236 47.572C567.236 50.3027 566.532 52.7133 565.124 54.804C563.759 56.852 561.796 58.4733 559.236 59.668C556.719 60.82 553.732 61.396 550.276 61.396Z" fill="white"/>
</g>
<defs>
<clipPath id="clip0_81_2">
<rect width="575" height="77" fill="white"/>
</clipPath>
</defs>
</svg>
