<svg width="195" height="65" viewBox="0 0 195 65" fill="none" xmlns="http://www.w3.org/2000/svg">
<g clip-path="url(#clip0_165_27)">
<path d="M17.6 61.96C13.5467 61.96 10.2667 60.92 7.76 58.84C5.25333 56.76 4 54.0133 4 50.6C4 47.4 5.2 44.84 7.6 42.92C10.0533 40.9467 13.1467 39.6133 16.88 38.92L33.92 35.72C33.92 30.1733 32.8533 26.1733 30.72 23.72C28.64 21.2667 25.44 20.04 21.12 20.04C17.2267 20.04 14.1067 21.0267 11.76 23C9.41333 24.9733 7.94667 27.7733 7.36 31.4L4.72 31.16C5.46667 26.84 7.22667 23.5067 10 21.16C12.8267 18.8133 16.5333 17.64 21.12 17.64C26.0267 17.64 29.7867 19.0533 32.4 21.88C35.0133 24.7067 36.32 29.0533 36.32 34.92V53C36.32 55.2933 36.64 56.8133 37.28 57.56C37.9733 58.2533 38.9867 58.6 40.32 58.6H40.8V61C40.5867 61.0533 40.3733 61.08 40.16 61.08C40 61.08 39.8133 61.08 39.6 61.08C38.4267 61.08 37.3867 60.84 36.48 60.36C35.6267 59.8267 34.96 58.8667 34.48 57.48C34 56.04 33.76 53.96 33.76 51.24H34.24C33.5467 53.1067 32.4267 54.8667 30.88 56.52C29.3333 58.1733 27.4133 59.5067 25.12 60.52C22.88 61.48 20.3733 61.96 17.6 61.96ZM17.76 59.56C20.8533 59.56 23.6 58.92 26 57.64C28.4533 56.3067 30.3733 54.52 31.76 52.28C33.2 50.04 33.92 47.5067 33.92 44.68V38.04L17.6 41.16C14.24 41.8 11.5467 42.8667 9.52 44.36C7.54667 45.8533 6.56 47.88 6.56 50.44C6.56 53.3733 7.52 55.64 9.44 57.24C11.4133 58.7867 14.1867 59.56 17.76 59.56ZM60.0856 61C57.3656 61 55.339 60.3333 54.0056 59C52.6723 57.6133 52.0056 55.6133 52.0056 53V8.68H54.4056V52.84C54.4056 54.9733 54.8856 56.4933 55.8456 57.4C56.859 58.3067 58.3256 58.76 60.2456 58.76H64.7256V61H60.0856ZM44.5656 20.84V18.6H64.7256V20.84H44.5656ZM74.2219 61V4.2H76.6219V30.2H76.3019C76.5152 27.4267 77.3152 25.1067 78.7019 23.24C80.0885 21.3733 81.8752 19.9867 84.0619 19.08C86.2485 18.12 88.6219 17.64 91.1819 17.64C94.3819 17.64 96.9952 18.36 99.0219 19.8C101.102 21.24 102.622 23.1867 103.582 25.64C104.595 28.04 105.102 30.7333 105.102 33.72V61H102.702V35.64C102.702 31.0533 101.769 27.32 99.9019 24.44C98.0885 21.5067 94.9685 20.04 90.5419 20.04C86.1685 20.04 82.7552 21.5067 80.3019 24.44C77.8485 27.32 76.6219 31.0533 76.6219 35.64V61H74.2219ZM128.694 61.96C124.64 61.96 121.36 60.92 118.854 58.84C116.347 56.76 115.094 54.0133 115.094 50.6C115.094 47.4 116.294 44.84 118.694 42.92C121.147 40.9467 124.24 39.6133 127.974 38.92L145.014 35.72C145.014 30.1733 143.947 26.1733 141.814 23.72C139.734 21.2667 136.534 20.04 132.214 20.04C128.32 20.04 125.2 21.0267 122.854 23C120.507 24.9733 119.04 27.7733 118.454 31.4L115.814 31.16C116.56 26.84 118.32 23.5067 121.094 21.16C123.92 18.8133 127.627 17.64 132.214 17.64C137.12 17.64 140.88 19.0533 143.494 21.88C146.107 24.7067 147.414 29.0533 147.414 34.92V53C147.414 55.2933 147.734 56.8133 148.374 57.56C149.067 58.2533 150.08 58.6 151.414 58.6H151.894V61C151.68 61.0533 151.467 61.08 151.254 61.08C151.094 61.08 150.907 61.08 150.694 61.08C149.52 61.08 148.48 60.84 147.574 60.36C146.72 59.8267 146.054 58.8667 145.574 57.48C145.094 56.04 144.854 53.96 144.854 51.24H145.334C144.64 53.1067 143.52 54.8667 141.974 56.52C140.427 58.1733 138.507 59.5067 136.214 60.52C133.974 61.48 131.467 61.96 128.694 61.96ZM128.854 59.56C131.947 59.56 134.694 58.92 137.094 57.64C139.547 56.3067 141.467 54.52 142.854 52.28C144.294 50.04 145.014 47.5067 145.014 44.68V38.04L128.694 41.16C125.334 41.8 122.64 42.8667 120.614 44.36C118.64 45.8533 117.654 47.88 117.654 50.44C117.654 53.3733 118.614 55.64 120.534 57.24C122.507 58.7867 125.28 59.56 128.854 59.56ZM175.106 61.96C171.64 61.96 168.653 61.3733 166.146 60.2C163.64 59.0267 161.666 57.4267 160.226 55.4C158.84 53.3733 158.066 51.1067 157.906 48.6L160.386 48.28C160.546 51.64 161.933 54.36 164.546 56.44C167.213 58.52 170.733 59.56 175.106 59.56C179.373 59.56 182.573 58.8133 184.706 57.32C186.893 55.8267 187.986 53.64 187.986 50.76C187.986 49.2133 187.666 47.88 187.026 46.76C186.386 45.5867 185.053 44.5733 183.026 43.72C181 42.8133 177.906 42.0133 173.746 41.32C169.8 40.6267 166.786 39.8 164.706 38.84C162.626 37.8267 161.213 36.6 160.466 35.16C159.72 33.6667 159.346 31.88 159.346 29.8C159.346 26.12 160.653 23.1867 163.266 21C165.933 18.76 169.426 17.64 173.746 17.64C176.786 17.64 179.373 18.2267 181.506 19.4C183.693 20.52 185.426 22.04 186.706 23.96C188.04 25.8267 188.92 27.9067 189.346 30.2L186.866 30.68C186.6 28.8133 185.933 27.08 184.866 25.48C183.853 23.8267 182.413 22.52 180.546 21.56C178.68 20.5467 176.413 20.04 173.746 20.04C170.173 20.04 167.293 20.8933 165.106 22.6C162.973 24.2533 161.906 26.6533 161.906 29.8C161.906 31.6667 162.253 33.1867 162.946 34.36C163.693 35.5333 165 36.4933 166.866 37.24C168.733 37.9333 171.4 38.5733 174.866 39.16C178.866 39.8 181.986 40.6267 184.226 41.64C186.52 42.6 188.146 43.8267 189.106 45.32C190.066 46.76 190.546 48.52 190.546 50.6C190.546 53.0533 189.933 55.1333 188.706 56.84C187.533 58.4933 185.8 59.7733 183.506 60.68C181.213 61.5333 178.413 61.96 175.106 61.96Z" fill="black"/>
</g>
<defs>
<clipPath id="clip0_165_27">
<rect width="195" height="65" fill="white"/>
</clipPath>
</defs>
</svg>
