<svg xmlns="http://www.w3.org/2000/svg" width="20" height="20" viewBox="0 0 24 24" role="img" aria-label="Clojure">
  <path d="M6.5 2.8h8.1L19.5 7.7v13.5H6.5a2 2 0 0 1-2-2V4.8a2 2 0 0 1 2-2Z" fill="#6B9775"/>
  <path d="M14.6 2.8v4.9h4.9Z" fill="#C4DDCC" opacity=".82"/>
  <path d="M7 5.2h6.6v4.6h3.6v9H7Z" fill="#10161F" opacity=".18"/>
  <path d="M17.5 7c-5.6.1-8.7 2.4-9.5 6.9-.3 1.9 1.1 3.6 3.1 3.3 4.3-.7 6.3-4.2 6.4-10.2z" fill="none" stroke="#C4DDCC" stroke-width="1.35" stroke-linejoin="round"/><path d="M8.5 16.3c2.3-2.8 4.2-4.4 7.4-6.4" stroke="#C4DDCC" stroke-width="1.2" stroke-linecap="round"/>
</svg>
