<svg xmlns="http://www.w3.org/2000/svg" width="20" height="20" viewBox="0 0 24 24" role="img" aria-label="Commitlint">
  <path d="M6.5 2.8h8.1L19.5 7.7v13.5H6.5a2 2 0 0 1-2-2V4.8a2 2 0 0 1 2-2Z" fill="#BC7B6C"/>
  <path d="M14.6 2.8v4.9h4.9Z" fill="#E7CCC6" opacity=".82"/>
  <path d="M7 5.2h6.6v4.6h3.6v9H7Z" fill="#10161F" opacity=".18"/>
  <path d="m12 6 6 6-6 6-6-6z" fill="none" stroke="#E7CCC6" stroke-width="1.45" stroke-linejoin="round"/><path d="M10 10.1h2.6c1.1 0 2 .9 2 2v2.1M10 10.1V8.4M10 10.1v5.5" stroke="#E7CCC6" stroke-width="1.35" stroke-linecap="round"/><circle cx="10" cy="10.1" r="1" fill="#E7CCC6"/><circle cx="14.6" cy="14.2" r="1" fill="#E7CCC6"/>
</svg>
