<svg xmlns="http://www.w3.org/2000/svg" width="20" height="20" viewBox="0 0 24 24" role="img" aria-label="Web">
  <path d="M3.2 8c0-1 .8-1.8 1.8-1.8h5l1.9 2.2H19c1 0 1.8.8 1.8 1.8v6.4c0 1-.8 1.8-1.8 1.8H5c-1 0-1.8-.8-1.8-1.8z" fill="#35A7A0"/>
  <path d="M4.7 9.5h14.6v1.8H4.7z" fill="#B9F0EC" opacity=".48"/>
  <path d="M5.5 8.4h4.2l1.2 1.5H5.5z" fill="#B9F0EC" opacity=".8"/>
  <g transform="translate(6.2 4.9) scale(.68)"><circle cx="9" cy="12" r="1.1" fill="#B9F0EC"/><circle cx="15" cy="12" r="1.1" fill="#B9F0EC"/><circle cx="12" cy="17" r="1.1" fill="#B9F0EC"/><path d="M10 12h4M9.6 13l1.8 3M14.4 13l-1.8 3" stroke="#B9F0EC" stroke-width="1.05" stroke-linecap="round"/></g>
</svg>
