<svg xmlns="http://www.w3.org/2000/svg" width="20" height="20" viewBox="0 0 24 24" role="img" aria-label="Styles">
  <path d="M3.2 8c0-1 .8-1.8 1.8-1.8h5l1.9 2.2H19c1 0 1.8.8 1.8 1.8v6.4c0 1-.8 1.8-1.8 1.8H5c-1 0-1.8-.8-1.8-1.8z" fill="#D866A4"/>
  <path d="M4.7 9.5h14.6v1.8H4.7z" fill="#F8C7DF" opacity=".48"/>
  <path d="M5.5 8.4h4.2l1.2 1.5H5.5z" fill="#F8C7DF" opacity=".8"/>
  <g transform="translate(6.2 4.9) scale(.68)"><path d="M12 10.6a3.9 3.9 0 0 0 0 7.8h.8c.6 0 .9-.8.4-1.1-.4-.4-.1-1 .5-1h.7c1 0 1.7-.7 1.7-1.9a3.9 3.9 0 0 0-4.1-3.8z" fill="none" stroke="#F8C7DF" stroke-width="1.1"/><circle cx="10.3" cy="13.8" r=".45" fill="#F8C7DF"/><circle cx="12" cy="12.7" r=".45" fill="#F8C7DF"/><circle cx="13.7" cy="13.8" r=".45" fill="#F8C7DF"/></g>
</svg>
