<svg xmlns="http://www.w3.org/2000/svg" width="20" height="20" viewBox="0 0 24 24" role="img" aria-label="Plugins">
  <path d="M3.2 8c0-1 .8-1.8 1.8-1.8h5l1.9 2.2H19c1 0 1.8.8 1.8 1.8v6.4c0 1-.8 1.8-1.8 1.8H5c-1 0-1.8-.8-1.8-1.8z" fill="#8B74D6"/>
  <path d="M4.7 9.5h14.6v1.8H4.7z" fill="#D5CCFF" opacity=".48"/>
  <path d="M5.5 8.4h4.2l1.2 1.5H5.5z" fill="#D5CCFF" opacity=".8"/>
  <g transform="translate(6.2 4.9) scale(.68)"><path d="M9.1 11.3h2.2c0-.9.6-1.5 1.4-1.5s1.4.6 1.4 1.5h1.8v2.2c-.9 0-1.5.6-1.5 1.4s.6 1.4 1.5 1.4v1.4H9.1v-1.8c.8 0 1.4-.6 1.4-1.4s-.6-1.4-1.4-1.4z" fill="none" stroke="#D5CCFF" stroke-width="1.05" stroke-linejoin="round"/></g>
</svg>
