<svg xmlns="http://www.w3.org/2000/svg" width="20" height="20" viewBox="0 0 24 24" role="img" aria-label="Hooks">
  <path d="M3.2 8c0-1 .8-1.8 1.8-1.8h5l1.9 2.2H19c1 0 1.8.8 1.8 1.8v6.4c0 1-.8 1.8-1.8 1.8H5c-1 0-1.8-.8-1.8-1.8z" fill="#8B74D6"/>
  <path d="M4.7 9.5h14.6v1.8H4.7z" fill="#D5CCFF" opacity=".48"/>
  <path d="M5.5 8.4h4.2l1.2 1.5H5.5z" fill="#D5CCFF" opacity=".8"/>
  <g transform="translate(6.2 4.9) scale(.68)"><path d="M13.6 11.2v3.6a2.3 2.3 0 0 1-4.6 0v-.6M13.6 11.2a1.7 1.7 0 1 1 2.5 1.5" fill="none" stroke="#D5CCFF" stroke-width="1.35" stroke-linecap="round"/></g>
</svg>
