<svg xmlns="http://www.w3.org/2000/svg" width="20" height="20" viewBox="0 0 24 24" role="img" aria-label="Fixtures">
  <path d="M3.2 8c0-1 .8-1.8 1.8-1.8h5l1.9 2.2H19c1 0 1.8.8 1.8 1.8v6.4c0 1-.8 1.8-1.8 1.8H5c-1 0-1.8-.8-1.8-1.8z" fill="#74A94D"/>
  <path d="M4.7 9.5h14.6v1.8H4.7z" fill="#D5EDBE" opacity=".48"/>
  <path d="M5.5 8.4h4.2l1.2 1.5H5.5z" fill="#D5EDBE" opacity=".8"/>
  <g transform="translate(6.2 4.9) scale(.68)"><path d="m12 10.7 4 2.1v3.8l-4 2-4-2v-3.8zM8 12.8l4 2.1 4-2.1M12 14.9v3.7" fill="none" stroke="#D5EDBE" stroke-width="1.15" stroke-linejoin="round"/></g>
</svg>
