<svg xmlns="http://www.w3.org/2000/svg" width="20" height="20" viewBox="0 0 24 24" role="img" aria-label="Routes">
  <path d="M3.2 8c0-1 .8-1.8 1.8-1.8h5l1.9 2.2H19c1 0 1.8.8 1.8 1.8v6.4c0 1-.8 1.8-1.8 1.8H5c-1 0-1.8-.8-1.8-1.8z" fill="#599E84"/>
  <path d="M4.7 9.5h14.6v1.8H4.7z" fill="#BADFD4" opacity=".48"/>
  <path d="M5.5 8.4h4.2l1.2 1.5H5.5z" fill="#BADFD4" opacity=".8"/>
  <g transform="translate(6.2 4.9) scale(.68)"><path d="M8.6 16.3c4.5 0 2.4-4.5 6.8-4.5M8.6 16.3l1.5-1.5M8.6 16.3l1.5 1.5M15.4 11.8l-1.5-1.5M15.4 11.8l-1.5 1.5" fill="none" stroke="#BADFD4" stroke-width="1.25" stroke-linecap="round" stroke-linejoin="round"/></g>
</svg>
