<svg xmlns="http://www.w3.org/2000/svg" width="20" height="20" viewBox="0 0 24 24" role="img" aria-label="Security">
  <path d="M3.2 8c0-1 .8-1.8 1.8-1.8h5l1.9 2.2H19c1 0 1.8.8 1.8 1.8v6.4c0 1-.8 1.8-1.8 1.8H5c-1 0-1.8-.8-1.8-1.8z" fill="#A18960"/>
  <path d="M4.7 9.5h14.6v1.8H4.7z" fill="#DDCCAC" opacity=".48"/>
  <path d="M5.5 8.4h4.2l1.2 1.5H5.5z" fill="#DDCCAC" opacity=".8"/>
  <g transform="translate(6.2 4.9) scale(.68)"><rect x="8.5" y="13.2" width="7" height="4.4" rx="1.1" fill="#DDCCAC"/><path d="M10 13.2v-1.1a2 2 0 0 1 4 0v1.1" fill="none" stroke="#DDCCAC" stroke-width="1.2"/></g>
</svg>
