<svg xmlns="http://www.w3.org/2000/svg" viewBox="3 2 18 20" role="img" aria-label="Java">
  <path d="M6.5 2.8h8.1L19.5 7.7v13.5H6.5a2 2 0 0 1-2-2V4.8a2 2 0 0 1 2-2Z" fill="#D2856C"/>
  <path d="M14.6 2.8v4.9h4.9Z" fill="#E0BAAC" opacity=".82"/>
  <path d="M7 5.2h6.6v4.6h3.6v9H7Z" fill="#10161F" opacity=".18"/>
  <path d="M10.4 14.8c-2.2.2-3.6.7-3.6 1.3 0 .8 2.3 1.4 5.2 1.4s5.2-.6 5.2-1.4c0-.6-1.4-1.1-3.6-1.3" fill="none" stroke="#E0BAAC" stroke-width="1.25"/><path d="M11.5 6.8c1.8 1.4-1.8 2.4.1 4M14 6.4c2.1 1.8-2.3 3 .1 5" fill="none" stroke="#E0BAAC" stroke-width="1.45" stroke-linecap="round"/>
</svg>
