<svg xmlns="http://www.w3.org/2000/svg" width="20" height="20" viewBox="0 0 24 24" role="img" aria-label="Python">
  <path d="M6.5 2.8h8.1L19.5 7.7v13.5H6.5a2 2 0 0 1-2-2V4.8a2 2 0 0 1 2-2Z" fill="#6996C3"/>
  <path d="M14.6 2.8v4.9h4.9Z" fill="#E0BE69" opacity=".82"/>
  <path d="M7 5.2h6.6v4.6h3.6v9H7Z" fill="#10161F" opacity=".18"/>
  <path d="M8.2 11.7V8.6c0-1.2 1-2.1 2.2-2.1h3.4c1.1 0 2 .9 2 2v2.3h-4.5c-.8 0-1.4.6-1.4 1.4v1.1H6.6c-.8 0-1.4-.6-1.4-1.4v-.2z" fill="#E0BE69"/><path d="M15.8 12.3v3.1c0 1.2-1 2.1-2.2 2.1h-3.4c-1.1 0-2-.9-2-2v-2.3h4.5c.8 0 1.4-.6 1.4-1.4v-1.1h3.3c.8 0 1.4.6 1.4 1.4v.2z" fill="#6996C3"/>
</svg>
