<svg xmlns="http://www.w3.org/2000/svg" viewBox="3 2 18 20" role="img" aria-label="Rust">
  <path d="M6.5 2.8h8.1L19.5 7.7v13.5H6.5a2 2 0 0 1-2-2V4.8a2 2 0 0 1 2-2Z" fill="#D78E6E"/>
  <path d="M14.6 2.8v4.9h4.9Z" fill="#D7B3A3" opacity=".82"/>
  <path d="M7 5.2h6.6v4.6h3.6v9H7Z" fill="#10161F" opacity=".18"/>
  <circle cx="12" cy="12" r="5.1" fill="none" stroke="#D7B3A3" stroke-width="1.45"/><path d="M9.4 15.2V8.8H13c1.4 0 2.3.8 2.3 2 0 .9-.5 1.5-1.3 1.8l1.7 2.6h-2.1L12.2 13h-1v2.2zM11.2 11.5h1.5c.5 0 .8-.3.8-.7s-.3-.7-.8-.7h-1.5z" fill="#D7B3A3"/>
</svg>
