<svg xmlns="http://www.w3.org/2000/svg" viewBox="3 2 18 20" role="img" aria-label="SVG">
  <path d="M6.5 2.8h8.1L19.5 7.7v13.5H6.5a2 2 0 0 1-2-2V4.8a2 2 0 0 1 2-2Z" fill="#D9A558"/>
  <path d="M14.6 2.8v4.9h4.9Z" fill="#E0C796" opacity=".82"/>
  <path d="M7 5.2h6.6v4.6h3.6v9H7Z" fill="#10161F" opacity=".18"/>
  <path d="M12 6.2a5.9 5.9 0 0 0 0 11.8h1.2c.9 0 1.3-1.1.6-1.7-.6-.5-.2-1.5.6-1.5h1.1c1.5 0 2.5-1.1 2.5-2.8a5.9 5.9 0 0 0-6-5.8z" fill="none" stroke="#E0C796" stroke-width="1.4"/><circle cx="9.4" cy="11" r=".8" fill="#E0C796"/><circle cx="12" cy="9.5" r=".8" fill="#E0C796"/><circle cx="14.7" cy="11" r=".8" fill="#E0C796"/><text x="12" y="16.2" text-anchor="middle" font-family="Arial,sans-serif" font-size="4" font-weight="700" fill="#E0C796">S</text>
</svg>
