<svg xmlns="http://www.w3.org/2000/svg" width="20" height="20" viewBox="0 0 24 24" role="img" aria-label="Swift">
  <path d="M6.5 2.8h8.1L19.5 7.7v13.5H6.5a2 2 0 0 1-2-2V4.8a2 2 0 0 1 2-2Z" fill="#EA8968"/>
  <path d="M14.6 2.8v4.9h4.9Z" fill="#E0BAAC" opacity=".82"/>
  <path d="M7 5.2h6.6v4.6h3.6v9H7Z" fill="#10161F" opacity=".18"/>
  <path d="M6.8 7.2c3.7 3.9 6.4 5.8 8.3 6.3-1.4.4-3 .3-4.8-.3 1.5 1.4 3.5 2.3 6.1 2.5 1-.9 1.4-2 1.3-3.3-.1-1.6-1.2-3.5-3.5-5.5 1.2 2 .8 3.7-.7 5.1-1.4-1.2-3.6-2.8-6.7-4.8z" fill="#E0BAAC"/>
</svg>
